<?xml version="1.0"?>
<svg width="702" height="162" xmlns="http://www.w3.org/2000/svg" xmlns:svg="http://www.w3.org/2000/svg" version="1.1">
 <g class="layer">
  <title>Layer 1</title>
  <path d="m0,0c231.66,0 463.32,0 702,0c0,53.46 0,106.92 0,162c-231.66,0 -463.32,0 -702,0c0,-53.46 0,-106.92 0,-162z" fill="#FEFEFE" id="svg_1"/>
  <path d="m565,31c10.23,0 20.46,0 31,0c3.65,8.21 7.3,16.42 10.95,24.63c0.73,1.64 1.46,3.28 2.18,4.92c2.48,5.59 4.96,11.17 7.43,16.75c0.82,1.86 1.65,3.72 2.47,5.58c5.17,11.64 10.17,23.32 14.97,35.12c-6.93,0 -13.86,0 -21,0c-3.96,-8.42 -3.96,-8.42 -8,-17c-16.17,0 -32.34,0 -49,0c-2.64,5.61 -5.28,11.22 -8,17c-6.93,0 -13.86,0 -21,0c4.47,-11 9.11,-21.88 14,-32.7c1.85,-4.1 3.69,-8.21 5.53,-12.31c0.37,-0.83 0.75,-1.66 1.13,-2.51c5.88,-13.12 11.6,-26.3 17.34,-39.48z" fill="#fe6b13" id="svg_2" transform="matrix(1 0 0 1 0 0)"/>
  <path d="m109.04,30.9c1.12,0 2.24,0 3.39,0c3.55,0.01 7.09,0.02 10.64,0.04c2.41,0 4.83,0 7.25,0.01c5.89,0.01 11.79,0.03 17.68,0.05c0,5.28 0,10.56 0,16c-1.51,0.01 -3.03,0.02 -4.59,0.03c-5.68,0.04 -11.35,0.1 -17.02,0.18c-2.44,0.02 -4.89,0.04 -7.34,0.06c-3.53,0.02 -7.06,0.07 -10.6,0.12c-1.08,0 -2.16,0 -3.27,0c-7.97,0.15 -16.15,1.17 -22.42,6.52c-6.53,6.82 -7.11,13.79 -6.94,22.93c0.46,7.87 2.7,13.67 8.37,19.35c7.61,4.9 15.44,5.27 24.29,5.32c1.16,0.02 2.32,0.04 3.52,0.05c3.69,0.06 7.38,0.09 11.07,0.13c2.51,0.03 5.02,0.06 7.53,0.1c6.14,0.08 12.27,0.15 18.4,0.21c0,5.28 0,10.56 0,16c-7.16,0.05 -14.33,0.08 -21.5,0.11c-2.43,0.01 -4.86,0.02 -7.3,0.04c-3.52,0.02 -7.03,0.03 -10.55,0.04c-1.61,0.02 -1.61,0.02 -3.24,0.03c-14.8,0.01 -29.03,-2.18 -40.41,-12.41c-10.7,-11.95 -10.78,-25.88 -10.22,-40.99c0.73,-9.2 5.44,-16.72 12.22,-22.82c12.27,-9.99 25.79,-11.17 41.04,-11.1z" fill="#032740" id="svg_3" transform="matrix(1 0 0 1 0 0)"/>
  <path d="m159,55c5.61,0 11.22,0 17,0c0.02,1.38 0.04,2.77 0.06,4.19c0.08,5.12 0.16,10.24 0.26,15.35c0.04,2.22 0.07,4.44 0.1,6.66c0.05,3.18 0.11,6.36 0.17,9.54c0.01,1 0.02,1.99 0.03,3.02c0.02,0.92 0.04,1.84 0.06,2.79c0.01,0.81 0.03,1.63 0.04,2.46c0.11,2.22 0.11,2.22 2.28,3.99c2.49,0.2 4.86,0.28 7.34,0.27c1.09,0 1.09,0 2.2,0c1.53,0 3.07,0 4.6,-0.01c2.35,-0.01 4.7,0 7.05,0.01c1.49,0 2.98,0 4.47,0c0.7,0 1.41,0 2.13,0.01c4.06,0.07 4.06,0.07 7.21,-2.28c0.33,-2.06 0.33,-2.06 0.32,-4.45c0.02,-0.92 0.04,-1.84 0.06,-2.79c0.01,-1 0.02,-1.99 0.03,-3.02c0.02,-1.02 0.04,-2.03 0.06,-3.08c0.06,-3.26 0.11,-6.52 0.16,-9.78c0.03,-2.21 0.07,-4.42 0.11,-6.63c0.1,-5.41 0.18,-10.83 0.26,-16.25c5.94,0 11.88,0 18,0c0.07,6.71 0.13,13.42 0.16,20.12c0.02,2.28 0.04,4.56 0.07,6.84c0.03,3.29 0.05,6.57 0.06,9.86c0.02,1.01 0.03,2.02 0.05,3.07c0,7.22 -1.19,11.72 -5.09,17.86c-4.95,4.95 -10.29,5.6 -17,5.69c-0.97,0 -1.94,0 -2.93,-0.01c-1.02,0.01 -2.03,0.01 -3.08,0.02c-2.13,0.01 -4.27,0 -6.41,0c-3.25,-0.01 -6.51,0.02 -9.76,0.05c-2.09,0 -4.17,0 -6.25,0c-0.97,0.01 -1.93,0.02 -2.93,0.03c-6.06,-0.06 -10.89,-0.93 -15.89,-4.53c-3.65,-4.58 -5.13,-8.13 -5.11,-13.93c0,-1 0,-2 0,-3.03c0,-1.08 0.01,-2.16 0.01,-3.27c0,-1.11 0.01,-2.21 0.01,-3.35c0,-3.54 0.01,-7.07 0.03,-10.61c0,-2.39 0.01,-4.79 0.01,-7.18c0.01,-5.88 0.03,-11.75 0.05,-17.63z" fill="#032740" id="svg_4" transform="matrix(1 0 0 1 0 0)"/>
  <path d="m404,55c6.65,-1.07 13.47,-2.11 20,0c6.46,5 10.17,12.86 14.04,19.89c1.61,2.7 2.49,3.96 5.54,4.91c0.88,0.03 1.76,0.05 2.67,0.08c0.89,0.03 1.78,0.07 2.7,0.11c0.68,0 1.35,0.01 2.05,0.01c0.28,-0.58 0.56,-1.17 0.85,-1.77c1.08,-2.1 2.27,-4 3.61,-5.94c0.47,-0.69 0.94,-1.38 1.43,-2.08c0.49,-0.71 0.98,-1.42 1.49,-2.15c0.48,-0.7 0.96,-1.4 1.46,-2.13c0.94,-1.37 1.9,-2.73 2.87,-4.08c1.43,-1.99 1.43,-1.99 3,-4.83c3.73,-3.29 7.76,-2.55 12.54,-2.33c0.94,0.02 1.87,0.04 2.84,0.07c2.3,0.05 4.61,0.14 6.91,0.24c-2.8,5.11 -5.89,9.78 -9.37,14.44c-0.49,0.65 -0.97,1.31 -1.47,1.99c-2.99,4.05 -6.06,8.03 -9.33,11.86c-1.23,2.54 -0.6,4.02 0.17,6.71c1.51,2.45 1.51,2.45 3.46,4.84c1.05,1.35 1.05,1.35 2.12,2.72c0.74,0.93 1.47,1.86 2.23,2.82c4.49,5.69 8.81,11.19 12.19,17.62c-6.66,1.09 -13.45,2.09 -20,0c-5.5,-4.12 -9.17,-10.08 -12.69,-15.89c-1.3,-2.17 -1.3,-2.17 -2.98,-4.26c-1.33,-1.85 -1.33,-1.85 -1.33,-3.85c-3.77,-0.73 -6.45,-0.49 -10,1c-3.64,3.49 -6.41,7.71 -9.24,11.85c-0.47,0.69 -0.94,1.38 -1.43,2.09c-1.35,2.02 -1.35,2.02 -2.42,4.13c-1.16,2.04 -2.08,3.44 -3.91,4.93c-3.64,0.84 -7.1,0.66 -10.81,0.44c-0.98,-0.03 -1.96,-0.07 -2.97,-0.1c-2.41,-0.08 -4.81,-0.2 -7.22,-0.34c0.52,-0.7 0.52,-0.7 1.06,-1.41c1.05,-1.4 2.1,-2.8 3.15,-4.2c1.19,-1.59 2.38,-3.17 3.57,-4.75c1.83,-2.44 3.65,-4.88 5.47,-7.33c0.94,-1.24 0.94,-1.24 1.89,-2.51c0.6,-0.8 1.2,-1.61 1.81,-2.44c0.81,-1.08 0.81,-1.08 1.63,-2.18c1.55,-2.38 2.66,-4.43 3.42,-7.18c-0.66,-2.01 -0.66,-2.01 -2.11,-3.75c-0.51,-0.69 -1.01,-1.37 -1.53,-2.08c-0.83,-1.07 -0.83,-1.07 -1.67,-2.17c-1.12,-1.51 -2.23,-3.02 -3.35,-4.53c-0.56,-0.75 -1.12,-1.5 -1.7,-2.27c-2.37,-3.18 -4.64,-6.43 -6.89,-9.7c-0.73,-1.04 -1.45,-2.08 -2.2,-3.16c-1.55,-2.34 -1.55,-2.34 -1.55,-3.34z" fill="#032740" id="svg_5" transform="matrix(1 0 0 1 0 0)"/>
  <path d="m322,55c5.61,0 11.22,0 17,0c0.03,1.35 0.05,2.69 0.08,4.08c0.09,5 0.19,9.99 0.29,14.98c0.05,2.16 0.09,4.33 0.13,6.49c0.06,3.1 0.12,6.21 0.18,9.31c0.02,0.97 0.04,1.94 0.05,2.94c0.02,0.9 0.04,1.8 0.06,2.73c0.03,1.19 0.03,1.19 0.05,2.4c0.09,2.27 0.09,2.27 1.16,5.07c4.79,0.07 9.57,0.13 14.36,0.16c1.63,0.02 3.26,0.04 4.89,0.07c2.34,0.03 4.68,0.05 7.02,0.06c0.73,0.02 1.46,0.03 2.21,0.05c3.85,0.06 3.85,0.06 7.21,-1.58c1.65,-2.22 1.7,-3.48 1.74,-6.23c0.02,-0.9 0.04,-1.8 0.06,-2.73c0.01,-1.45 0.01,-1.45 0.02,-2.94c0.02,-0.99 0.04,-1.99 0.06,-3.01c0.05,-3.18 0.08,-6.36 0.12,-9.54c0.03,-2.15 0.07,-4.31 0.1,-6.46c0.09,-5.28 0.15,-10.57 0.21,-15.85c5.61,0 11.22,0 17,0c0.1,6.83 0.17,13.66 0.22,20.5c0.02,2.32 0.05,4.64 0.08,6.96c0.05,3.35 0.07,6.69 0.09,10.04c0.02,1.03 0.04,2.06 0.06,3.12c0.01,7.63 -1.6,12.77 -6.32,18.76c-5.59,4.27 -12.01,3.95 -18.72,3.99c-1.52,0.01 -1.52,0.01 -3.07,0.03c-2.15,0.01 -4.29,0.02 -6.43,0.03c-3.27,0.01 -6.53,0.06 -9.79,0.11c-2.09,0.01 -4.18,0.01 -6.27,0.02c-1.45,0.03 -1.45,0.03 -2.93,0.06c-6.5,-0.05 -10.94,-1.34 -15.92,-5.62c-3.58,-4.59 -5.13,-8.06 -5.11,-13.84c0,-0.98 0,-1.96 0,-2.97c0,-1.06 0.01,-2.11 0.01,-3.2c0,-1.09 0.01,-2.17 0.01,-3.28c0,-3.47 0.01,-6.93 0.03,-10.4c0,-2.34 0.01,-4.69 0.01,-7.04c0.01,-5.76 0.03,-11.51 0.05,-17.27z" fill="#032740" id="svg_6" transform="matrix(1 0 0 1 0 0)"/>
  <path d="m246,55c12.87,-0.12 12.87,-0.12 26,-0.25c2.69,-0.04 5.39,-0.07 8.16,-0.11c2.16,-0.01 4.31,-0.02 6.47,-0.03c1.1,-0.02 2.2,-0.04 3.34,-0.06c7.25,-0.01 13.17,0.76 18.58,5.93c3.4,3.88 4.58,6.91 4.55,11.97c-0.01,1.27 -0.01,1.27 -0.01,2.57c-0.01,1.32 -0.01,1.32 -0.03,2.67c0,0.89 -0.01,1.78 -0.01,2.7c-0.01,2.21 -0.03,4.41 -0.05,6.61c-5.94,0 -11.88,0 -18,0c-0.37,-7.37 -0.37,-7.37 -0.48,-9.69c-0.14,-4.11 -0.14,-4.11 -2.52,-7.31c-3.01,-0.37 -3.01,-0.37 -6.54,-0.41c-1.76,-0.06 -1.76,-0.06 -3.55,-0.11c-1.5,-0.04 -2.99,-0.07 -4.53,-0.1c-4.75,-0.13 -9.49,-0.25 -14.38,-0.38c0,16.17 0,32.34 0,49c-5.61,0 -11.22,0 -17,0c0,-20.79 0,-41.58 0,-63z" fill="#032740" id="svg_7" transform="matrix(1 0 0 1 0 0)"/>
  <path d="m498,31c6.27,0 12.54,0 19,0c0,28.71 0,57.42 0,87c-6.27,0 -12.54,0 -19,0c0,-28.71 0,-57.42 0,-87z" fill="#fe6b13" id="svg_8" transform="matrix(1 0 0 1 0 0)"/>
  <path d="m0,0c0.99,0 1.98,0 3,0c2.28,5.25 4.56,10.5 6.84,15.75c0.77,1.79 1.55,3.58 2.32,5.37c1.12,2.56 2.23,5.12 3.34,7.69c0.35,0.8 0.7,1.61 1.06,2.44c2.44,5.64 2.44,5.64 2.44,6.75c-11.55,0 -23.1,0 -35,0c5.62,-14.62 5.62,-14.62 7.89,-19.74c0.48,-1.08 0.96,-2.17 1.46,-3.29c0.72,-1.62 0.72,-1.62 1.46,-3.28c0.5,-1.14 1.01,-2.27 1.52,-3.44c1.22,-2.75 2.45,-5.5 3.67,-8.25z" fill="#F8F8F8" id="svg_9" transform="translate(579,46)"/>
 </g>
</svg>